<svg width="30" height="46" viewBox="0 0 30 46" fill="none" xmlns="http://www.w3.org/2000/svg">
<path d="M2.57441 9.63953C1.90305 9.86524 1.31967 10.292 0.905498 10.8605C0.491324 11.429 0.266971 12.1108 0.263672 12.8111V38.2949C0.263672 38.8375 0.582403 39.3259 0.975312 39.4127L3.99769 40.0692C4.04021 40.0778 4.08344 40.0823 4.12682 40.0828C4.495 40.0828 4.78076 39.7247 4.78076 39.2201V28.6147C4.78076 28.3244 4.9566 28.0938 5.1874 28.0938H5.21488L9.38026 28.3814C9.87758 28.4248 9.86385 28.5442 9.86385 28.9945C9.86385 31.344 9.88858 40.4572 9.86385 41.339C10.0222 41.3828 10.1857 41.4056 10.3502 41.4068C11.6663 41.4068 12.4329 39.779 12.5483 38.5825C12.9604 36.724 12.3449 11.3352 12.6802 9.30854C12.7657 8.70107 12.9073 8.1026 13.1033 7.52063C13.4962 6.37572 14.1694 5.27149 15.1997 4.59052L2.57441 9.63953ZM9.8556 23.3242C9.86521 23.4618 9.82143 23.5978 9.73314 23.7046C9.64485 23.8115 9.51868 23.8811 9.38026 23.8994L5.20938 23.8289C5.0782 23.8074 4.96024 23.7374 4.87957 23.633C4.79889 23.5287 4.76158 23.3978 4.77525 23.2672V17.6919C4.78794 17.0952 4.86345 16.5015 5.00056 15.9203C5.27532 14.8134 5.84682 13.5599 7.10798 13.3483L7.23988 13.3293C7.31836 13.3209 7.39722 13.3163 7.47617 13.3157C9.85286 13.3157 9.8556 17.3853 9.8556 17.4016V23.3242Z" fill="white"/>
<path d="M28.2016 0.108534L18.725 3.90682C16.4747 4.81299 15.3757 6.18851 15.3757 6.18851C14.7716 6.80028 14.3217 7.54379 14.0623 8.35896C13.8811 8.90075 13.7487 9.45729 13.6667 10.0221V10.0356C13.6172 10.3232 13.5897 11.1724 13.5732 12.396V36.9791C13.5769 37.6508 13.5393 38.3222 13.4606 38.9895C13.3866 39.7908 13.1708 40.5732 12.8232 41.301C12.6242 41.7133 12.3203 42.0676 11.9412 42.3292L14.8811 42.9749C15.4306 43.0943 15.8813 42.6765 15.8813 42.0389V30.0526C15.8748 29.9776 15.8842 29.902 15.9089 29.8308C15.9336 29.7595 15.973 29.6941 16.0247 29.6388C16.0764 29.5834 16.1392 29.5392 16.2091 29.5091C16.279 29.479 16.3545 29.4636 16.4308 29.4639L21.8078 29.8356C21.9831 29.857 22.1441 29.9418 22.2598 30.0736C22.3755 30.2053 22.4377 30.3748 22.4343 30.5491V43.3873C22.4405 43.7288 22.5595 44.0589 22.7733 44.3273C22.9871 44.5957 23.2839 44.7877 23.6185 44.8741L28.6659 45.9593C28.825 46.0045 28.9926 46.0115 29.155 45.9797C29.3173 45.948 29.4696 45.8783 29.5992 45.7767C29.7288 45.675 29.8319 45.5442 29.8999 45.3953C29.9679 45.2463 29.9989 45.0834 29.9903 44.9202V1.2236C29.9848 0.27674 29.1138 -0.252303 28.2016 0.108534ZM22.4316 24.0649C22.4349 24.1488 22.4212 24.2325 22.3914 24.3112C22.3615 24.3898 22.3161 24.4618 22.2578 24.5229C22.1995 24.5841 22.1294 24.6331 22.0517 24.6672C21.974 24.7013 21.8901 24.7197 21.8051 24.7214L16.4253 24.6265C16.2681 24.612 16.1227 24.5376 16.0202 24.4191C15.9176 24.3006 15.8658 24.1472 15.8758 23.9916V17.6946C15.8758 17.6946 15.8757 13.0553 19.0437 12.7161C22.4343 12.358 22.4343 17.3283 22.4343 17.3283L22.4316 24.0649Z" fill="white"/>
</svg>
